mtllib Table1.mtl
g group1_pasted__pCylinder2

# Vertex Positions:
v 93.93683 109.17439 -29.57309
v 80.34357 109.17439 -56.25138
v 80.34357 118.33238 -56.25138
v 93.93683 118.33238 -29.57309
v 59.17157 109.17439 -77.42339
v 59.17157 118.33238 -77.42339
v 32.49326 109.17439 -91.01664
v 32.49326 118.33238 -91.01664
v 2.92017 109.17439 -95.70055
v 2.92017 118.33238 -95.70055
v -26.65294 109.17439 -91.01663
v -26.65294 118.33238 -91.01663
v -53.33121 109.17439 -77.42337
v -53.33121 118.33238 -77.42337
v -74.5032 109.17439 -56.25136
v -74.5032 118.33238 -56.25136
v -88.09647 109.17439 -29.57308
v -88.09647 118.33238 -29.57308
v -92.78038 109.17439 0.00001
v -92.78038 118.33238 0.00001
v -88.09647 109.17439 29.5731
v -88.09647 118.33238 29.5731
v -74.5032 109.17439 56.25137
v -74.5032 118.33238 56.25137
v -53.33119 109.17439 77.42336
v -53.33119 118.33238 77.42336
v -26.65292 109.17439 91.01662
v -26.65292 118.33238 91.01662
v 2.92017 109.17439 95.70054
v 2.92017 118.33238 95.70054
v 32.49326 109.17439 91.01662
v 32.49326 118.33238 91.01662
v 59.17151 109.17439 77.42336
v 59.17151 118.33238 77.42336
v 80.34351 109.17439 56.25137
v 80.34351 118.33238 56.25137
v 93.93677 109.17439 29.5731
v 93.93677 118.33238 29.5731
v 98.62067 109.17439 0.00001
v 98.62067 118.33238 0.00001
v 2.92017 109.17439 0.00001
v 2.92017 118.33238 0.00001
v 41.68399 0 -12.78265
v 35.80847 0 -24.31404
v 35.80847 3.95844 -24.31404
v 41.68399 3.95844 -12.78265
v 26.6571 0 -33.46541
v 26.6571 3.95844 -33.46541
v 15.1257 0 -39.34094
v 15.1257 3.95844 -39.34094
v 2.34305 0 -41.36552
v 2.34305 3.95844 -41.36552
v -10.43961 0 -39.34094
v -10.43961 3.95844 -39.34094
v -21.97099 0 -33.4654
v -21.97099 3.95844 -33.4654
v -31.12234 0 -24.31404
v -31.12234 3.95844 -24.31404
v -36.99789 0 -12.78264
v -36.99789 3.95844 -12.78264
v -39.02248 0 0
v -39.02248 3.95844 0
v -36.99789 0 12.78264
v -36.99789 3.95844 12.78264
v -31.12234 0 24.31403
v -31.12234 3.95844 24.31403
v -21.97098 0 33.46539
v -21.97098 3.95844 33.46539
v -10.43959 0 39.34093
v -10.43959 3.95844 39.34093
v 2.34305 0 41.3655
v 2.34305 3.95844 41.3655
v 15.1257 0 39.34093
v 15.1257 3.95844 39.34093
v 26.65707 0 33.46539
v 26.65707 3.95844 33.46539
v 35.80844 0 24.31403
v 35.80844 3.95844 24.31403
v 41.68396 0 12.78264
v 41.68396 3.95844 12.78264
v 43.70856 0 0
v 43.70856 3.95844 0
v 2.34305 0 0
v 2.34305 3.95844 0
v 6.57581 2.89548 -2.44378
v 4.78683 2.89548 -4.23275
v 4.78683 117.53676 -4.23275
v 6.57581 117.53676 -2.44378
v 2.34305 2.89548 -4.88756
v 2.34305 117.53676 -4.88756
v -0.10074 2.89548 -4.23275
v -0.10074 117.53676 -4.23275
v -1.88969 2.89548 -2.44378
v -1.88969 117.53676 -2.44378
v -2.54451 2.89548 0
v -2.54451 117.53676 0
v -1.88969 2.89548 2.44378
v -1.88969 117.53676 2.44378
v -0.10074 2.89548 4.23275
v -0.10074 117.53676 4.23275
v 2.34305 2.89548 4.88756
v 2.34305 117.53676 4.88756
v 4.78683 2.89548 4.23275
v 4.78683 117.53676 4.23275
v 6.57581 2.89548 2.44378
v 6.57581 117.53676 2.44378
v 7.23062 2.89548 0
v 7.23062 117.53676 0
v 2.34305 2.89548 0
v 2.34305 117.53676 0

# Vertex Texture Coordinates:
vt 0.375 0.3125 
vt 0.3875 0.3125 
vt 0.3875 0.68844 
vt 0.375 0.68844 
vt 0.4 0.3125 
vt 0.4 0.68844 
vt 0.4125 0.3125 
vt 0.4125 0.68844 
vt 0.425 0.3125 
vt 0.425 0.68844 
vt 0.4375 0.3125 
vt 0.4375 0.68844 
vt 0.45 0.3125 
vt 0.45 0.68844 
vt 0.4625 0.3125 
vt 0.4625 0.68844 
vt 0.475 0.3125 
vt 0.475 0.68844 
vt 0.4875 0.3125 
vt 0.4875 0.68844 
vt 0.5 0.3125 
vt 0.5 0.68844 
vt 0.5125 0.3125 
vt 0.5125 0.68844 
vt 0.525 0.3125 
vt 0.525 0.68844 
vt 0.5375 0.3125 
vt 0.5375 0.68844 
vt 0.55 0.3125 
vt 0.55 0.68844 
vt 0.5625 0.3125 
vt 0.5625 0.68844 
vt 0.575 0.3125 
vt 0.575 0.68844 
vt 0.5875 0.3125 
vt 0.5875 0.68844 
vt 0.6 0.3125 
vt 0.6 0.68844 
vt 0.6125 0.3125 
vt 0.6125 0.68844 
vt 0.625 0.3125 
vt 0.625 0.68844 
vt 0.62641 0.06441 
vt 0.6486 0.10797 
vt 0.5 0.15 
vt 0.59184 0.02984 
vt 0.54828 0.00765 
vt 0.5 -0 
vt 0.45172 0.00765 
vt 0.40816 0.02984 
vt 0.37359 0.06441 
vt 0.3514 0.10797 
vt 0.34375 0.15625 
vt 0.3514 0.20453 
vt 0.37359 0.24809 
vt 0.40816 0.28266 
vt 0.45172 0.30485 
vt 0.5 0.3125 
vt 0.54828 0.30485 
vt 0.59184 0.28266 
vt 0.62641 0.24809 
vt 0.6486 0.20453 
vt 0.65625 0.15625 
vt 0.6486 0.89203 
vt 0.62641 0.93559 
vt 0.5 0.8375 
vt 0.59184 0.97016 
vt 0.54828 0.99235 
vt 0.5 1 
vt 0.45172 0.99235 
vt 0.40816 0.97016 
vt 0.37359 0.93559 
vt 0.3514 0.89203 
vt 0.34375 0.84375 
vt 0.3514 0.79547 
vt 0.37359 0.75191 
vt 0.40816 0.71734 
vt 0.45172 0.69515 
vt 0.5 0.6875 
vt 0.54828 0.69515 
vt 0.59184 0.71734 
vt 0.62641 0.75191 
vt 0.6486 0.79547 
vt 0.65625 0.84375 
vt 0.375 0.3125 
vt 0.3875 0.3125 
vt 0.3875 0.68844 
vt 0.375 0.68844 
vt 0.4 0.3125 
vt 0.4 0.68844 
vt 0.4125 0.3125 
vt 0.4125 0.68844 
vt 0.425 0.3125 
vt 0.425 0.68844 
vt 0.4375 0.3125 
vt 0.4375 0.68844 
vt 0.45 0.3125 
vt 0.45 0.68844 
vt 0.4625 0.3125 
vt 0.4625 0.68844 
vt 0.475 0.3125 
vt 0.475 0.68844 
vt 0.4875 0.3125 
vt 0.4875 0.68844 
vt 0.5 0.3125 
vt 0.5 0.68844 
vt 0.5125 0.3125 
vt 0.5125 0.68844 
vt 0.525 0.3125 
vt 0.525 0.68844 
vt 0.5375 0.3125 
vt 0.5375 0.68844 
vt 0.55 0.3125 
vt 0.55 0.68844 
vt 0.5625 0.3125 
vt 0.5625 0.68844 
vt 0.575 0.3125 
vt 0.575 0.68844 
vt 0.5875 0.3125 
vt 0.5875 0.68844 
vt 0.6 0.3125 
vt 0.6 0.68844 
vt 0.6125 0.3125 
vt 0.6125 0.68844 
vt 0.625 0.3125 
vt 0.625 0.68844 
vt 0.62641 0.06441 
vt 0.6486 0.10797 
vt 0.5 0.15 
vt 0.59184 0.02984 
vt 0.54828 0.00765 
vt 0.5 -0 
vt 0.45172 0.00765 
vt 0.40816 0.02984 
vt 0.37359 0.06441 
vt 0.3514 0.10797 
vt 0.34375 0.15625 
vt 0.3514 0.20453 
vt 0.37359 0.24809 
vt 0.40816 0.28266 
vt 0.45172 0.30485 
vt 0.5 0.3125 
vt 0.54828 0.30485 
vt 0.59184 0.28266 
vt 0.62641 0.24809 
vt 0.6486 0.20453 
vt 0.65625 0.15625 
vt 0.6486 0.89203 
vt 0.62641 0.93559 
vt 0.5 0.8375 
vt 0.59184 0.97016 
vt 0.54828 0.99235 
vt 0.5 1 
vt 0.45172 0.99235 
vt 0.40816 0.97016 
vt 0.37359 0.93559 
vt 0.3514 0.89203 
vt 0.34375 0.84375 
vt 0.3514 0.79547 
vt 0.37359 0.75191 
vt 0.40816 0.71734 
vt 0.45172 0.69515 
vt 0.5 0.6875 
vt 0.54828 0.69515 
vt 0.59184 0.71734 
vt 0.62641 0.75191 
vt 0.6486 0.79547 
vt 0.65625 0.84375 
vt 0.375 0.3125 
vt 0.39583 0.3125 
vt 0.39583 0.68844 
vt 0.375 0.68844 
vt 0.41667 0.3125 
vt 0.41667 0.68844 
vt 0.4375 0.3125 
vt 0.4375 0.68844 
vt 0.45833 0.3125 
vt 0.45833 0.68844 
vt 0.47917 0.3125 
vt 0.47917 0.68844 
vt 0.5 0.3125 
vt 0.5 0.68844 
vt 0.52083 0.3125 
vt 0.52083 0.68844 
vt 0.54167 0.3125 
vt 0.54167 0.68844 
vt 0.5625 0.3125 
vt 0.5625 0.68844 
vt 0.58333 0.3125 
vt 0.58333 0.68844 
vt 0.60417 0.3125 
vt 0.60417 0.68844 
vt 0.625 0.3125 
vt 0.625 0.68844 
vt 0.57812 0.02093 
vt 0.63532 0.07812 
vt 0.5 0.15 
vt 0.5 0 
vt 0.42188 0.02093 
vt 0.36468 0.07812 
vt 0.34375 0.15625 
vt 0.36468 0.23438 
vt 0.42188 0.29157 
vt 0.5 0.3125 
vt 0.57812 0.29157 
vt 0.63532 0.23438 
vt 0.65625 0.15625 
vt 0.63532 0.92188 
vt 0.57812 0.97907 
vt 0.5 0.8375 
vt 0.5 1 
vt 0.42188 0.97907 
vt 0.36468 0.92188 
vt 0.34375 0.84375 
vt 0.36468 0.76562 
vt 0.42188 0.70843 
vt 0.5 0.6875 
vt 0.57812 0.70843 
vt 0.63532 0.76562 
vt 0.65625 0.84375 

# Vertex Surface Normals:
vn 0.95106 0 -0.30902
vn 0.80902 0 -0.58779
vn 0.80902 0 -0.58779
vn 0.95106 0 -0.30902
vn 0.58779 0 -0.80902
vn 0.58779 0 -0.80902
vn 0.30902 0 -0.95106
vn 0.30902 0 -0.95106
vn -0 0 -1
vn -0 0 -1
vn -0.30902 0 -0.95106
vn -0.30902 0 -0.95106
vn -0.58779 0 -0.80902
vn -0.58779 0 -0.80902
vn -0.80902 0 -0.58779
vn -0.80902 0 -0.58779
vn -0.95106 0 -0.30902
vn -0.95106 0 -0.30902
vn -1 0 0
vn -1 0 0
vn -0.95106 0 0.30902
vn -0.95106 0 0.30902
vn -0.80902 0 0.58779
vn -0.80902 0 0.58779
vn -0.58779 0 0.80902
vn -0.58779 0 0.80902
vn -0.30902 0 0.95106
vn -0.30902 0 0.95106
vn 0 0 1
vn 0 0 1
vn 0.30902 0 0.95106
vn 0.30902 0 0.95106
vn 0.58779 0 0.80902
vn 0.58779 0 0.80902
vn 0.80902 0 0.58779
vn 0.80902 0 0.58779
vn 0.95106 0 0.30902
vn 0.95106 0 0.30902
vn 1 0 0
vn 1 0 0
vn 0 -1 0
vn 0 -1 0
vn 0 -1 0
vn 0 -1 0
vn 0 -1 0
vn 0 -1 0
vn 0 -1 0
vn 0 -1 0
vn 0 -1 0
vn 0 -1 0
vn 0 -1 0
vn 0 -1 0
vn 0 -1 0
vn 0 -1 0
vn 0 -1 0
vn 0 -1 0
vn 0 -1 0
vn 0 -1 0
vn 0 -1 0
vn 0 -1 0
vn 0 -1 0
vn 0 1 0
vn 0 1 0
vn 0 1 0
vn 0 1 0
vn 0 1 0
vn 0 1 0
vn 0 1 0
vn 0 1 0
vn 0 1 0
vn 0 1 0
vn 0 1 0
vn 0 1 0
vn 0 1 0
vn 0 1 0
vn 0 1 0
vn 0 1 0
vn 0 1 0
vn 0 1 0
vn 0 1 0
vn 0 1 0
vn 0 1 0
vn 0.95106 0 -0.30902
vn 0.80902 0 -0.58779
vn 0.80902 0 -0.58779
vn 0.95106 0 -0.30902
vn 0.58779 0 -0.80902
vn 0.58779 0 -0.80902
vn 0.30902 0 -0.95106
vn 0.30902 0 -0.95106
vn -0 0 -1
vn -0 0 -1
vn -0.30902 0 -0.95106
vn -0.30902 0 -0.95106
vn -0.58779 0 -0.80902
vn -0.58779 0 -0.80902
vn -0.80902 0 -0.58779
vn -0.80902 0 -0.58779
vn -0.95106 0 -0.30902
vn -0.95106 0 -0.30902
vn -1 0 0
vn -1 0 0
vn -0.95106 0 0.30902
vn -0.95106 0 0.30902
vn -0.80902 0 0.58779
vn -0.80902 0 0.58779
vn -0.58779 0 0.80902
vn -0.58779 0 0.80902
vn -0.30902 0 0.95106
vn -0.30902 0 0.95106
vn 0 0 1
vn 0 0 1
vn 0.30902 0 0.95106
vn 0.30902 0 0.95106
vn 0.58779 0 0.80902
vn 0.58779 0 0.80902
vn 0.80902 0 0.58779
vn 0.80902 0 0.58779
vn 0.95106 0 0.30902
vn 0.95106 0 0.30902
vn 1 0 0
vn 1 0 0
vn 0 -1 0
vn 0 -1 0
vn 0 -1 0
vn 0 -1 0
vn 0 -1 0
vn 0 -1 0
vn 0 -1 0
vn 0 -1 0
vn 0 -1 0
vn 0 -1 0
vn 0 -1 0
vn 0 -1 0
vn 0 -1 0
vn 0 -1 0
vn 0 -1 0
vn 0 -1 0
vn 0 -1 0
vn 0 -1 0
vn 0 -1 0
vn 0 -1 0
vn 0 -1 0
vn 0 1 0
vn 0 1 0
vn 0 1 0
vn 0 1 0
vn 0 1 0
vn 0 1 0
vn 0 1 0
vn 0 1 0
vn 0 1 0
vn 0 1 0
vn 0 1 0
vn 0 1 0
vn 0 1 0
vn 0 1 0
vn 0 1 0
vn 0 1 0
vn 0 1 0
vn 0 1 0
vn 0 1 0
vn 0 1 0
vn 0 1 0
vn 0.70711 0 -0.70711
vn 0.70711 0 -0.70711
vn 0.70711 0 -0.70711
vn 0.70711 0 -0.70711
vn 0.25882 0 -0.96593
vn 0.25882 0 -0.96593
vn 0.25882 0 -0.96593
vn 0.25882 0 -0.96593
vn -0.25882 0 -0.96593
vn -0.25882 0 -0.96593
vn -0.25882 0 -0.96593
vn -0.25882 0 -0.96593
vn -0.70711 0 -0.70711
vn -0.70711 0 -0.70711
vn -0.70711 0 -0.70711
vn -0.70711 0 -0.70711
vn -0.96593 0 -0.25882
vn -0.96593 0 -0.25882
vn -0.96593 0 -0.25882
vn -0.96593 0 -0.25882
vn -0.96593 0 0.25882
vn -0.96593 0 0.25882
vn -0.96593 0 0.25882
vn -0.96593 0 0.25882
vn -0.70711 0 0.70711
vn -0.70711 0 0.70711
vn -0.70711 0 0.70711
vn -0.70711 0 0.70711
vn -0.25882 0 0.96593
vn -0.25882 0 0.96593
vn -0.25882 0 0.96593
vn -0.25882 0 0.96593
vn 0.25882 0 0.96593
vn 0.25882 0 0.96593
vn 0.25882 0 0.96593
vn 0.25882 0 0.96593
vn 0.70711 0 0.70711
vn 0.70711 0 0.70711
vn 0.70711 0 0.70711
vn 0.70711 0 0.70711
vn 0.96592 0 0.25882
vn 0.96592 0 0.25882
vn 0.96592 0 0.25882
vn 0.96592 0 0.25882
vn 0.96592 0 -0.25882
vn 0.96592 0 -0.25882
vn 0.96592 0 -0.25882
vn 0.96592 0 -0.25882
vn 0 -1 0
vn 0 -1 0
vn 0 -1 0
vn 0 -1 0
vn 0 -1 0
vn 0 -1 0
vn 0 -1 0
vn 0 -1 0
vn 0 -1 0
vn 0 -1 0
vn 0 -1 0
vn 0 -1 0
vn 0 -1 0
vn 0 1 0
vn 0 1 0
vn 0 1 0
vn 0 1 0
vn 0 1 0
vn 0 1 0
vn 0 1 -0
vn 0 1 -0
vn 0 1 -0
vn 0 1 0
vn 0 1 -0
vn 0 1 0
vn 0 1 0

# Faces:
usemtl Metal
f 1/1/1 2/2/2 3/3/3 4/4/4
f 2/2/2 5/5/5 6/6/6 3/3/3
f 5/5/5 7/7/7 8/8/8 6/6/6
f 7/7/7 9/9/9 10/10/10 8/8/8
f 9/9/9 11/11/11 12/12/12 10/10/10
f 11/11/11 13/13/13 14/14/14 12/12/12
f 13/13/13 15/15/15 16/16/16 14/14/14
f 15/15/15 17/17/17 18/18/18 16/16/16
f 17/17/17 19/19/19 20/20/20 18/18/18
f 19/19/19 21/21/21 22/22/22 20/20/20
f 21/21/21 23/23/23 24/24/24 22/22/22
f 23/23/23 25/25/25 26/26/26 24/24/24
f 25/25/25 27/27/27 28/28/28 26/26/26
f 27/27/27 29/29/29 30/30/30 28/28/28
f 29/29/29 31/31/31 32/32/32 30/30/30
f 31/31/31 33/33/33 34/34/34 32/32/32
f 33/33/33 35/35/35 36/36/36 34/34/34
f 35/35/35 37/37/37 38/38/38 36/36/36
f 37/37/37 39/39/39 40/40/40 38/38/38
f 39/39/39 1/41/1 4/42/4 40/40/40
f 2/43/41 1/44/42 41/45/43
f 5/46/44 2/43/41 41/45/43
f 7/47/45 5/46/44 41/45/43
f 9/48/46 7/47/45 41/45/43
f 11/49/47 9/48/46 41/45/43
f 13/50/48 11/49/47 41/45/43
f 15/51/49 13/50/48 41/45/43
f 17/52/50 15/51/49 41/45/43
f 19/53/51 17/52/50 41/45/43
f 21/54/52 19/53/51 41/45/43
f 23/55/53 21/54/52 41/45/43
f 25/56/54 23/55/53 41/45/43
f 27/57/55 25/56/54 41/45/43
f 29/58/56 27/57/55 41/45/43
f 31/59/57 29/58/56 41/45/43
f 33/60/58 31/59/57 41/45/43
f 35/61/59 33/60/58 41/45/43
f 37/62/60 35/61/59 41/45/43
f 39/63/61 37/62/60 41/45/43
f 1/44/42 39/63/61 41/45/43
f 4/64/62 3/65/63 42/66/64
f 3/65/63 6/67/65 42/66/64
f 6/67/65 8/68/66 42/66/64
f 8/68/66 10/69/67 42/66/64
f 10/69/67 12/70/68 42/66/64
f 12/70/68 14/71/69 42/66/64
f 14/71/69 16/72/70 42/66/64
f 16/72/70 18/73/71 42/66/64
f 18/73/71 20/74/72 42/66/64
f 20/74/72 22/75/73 42/66/64
f 22/75/73 24/76/74 42/66/64
f 24/76/74 26/77/75 42/66/64
f 26/77/75 28/78/76 42/66/64
f 28/78/76 30/79/77 42/66/64
f 30/79/77 32/80/78 42/66/64
f 32/80/78 34/81/79 42/66/64
f 34/81/79 36/82/80 42/66/64
f 36/82/80 38/83/81 42/66/64
f 38/83/81 40/84/82 42/66/64
f 40/84/82 4/64/62 42/66/64
f 43/85/83 44/86/84 45/87/85 46/88/86
f 44/86/84 47/89/87 48/90/88 45/87/85
f 47/89/87 49/91/89 50/92/90 48/90/88
f 49/91/89 51/93/91 52/94/92 50/92/90
f 51/93/91 53/95/93 54/96/94 52/94/92
f 53/95/93 55/97/95 56/98/96 54/96/94
f 55/97/95 57/99/97 58/100/98 56/98/96
f 57/99/97 59/101/99 60/102/100 58/100/98
f 59/101/99 61/103/101 62/104/102 60/102/100
f 61/103/101 63/105/103 64/106/104 62/104/102
f 63/105/103 65/107/105 66/108/106 64/106/104
f 65/107/105 67/109/107 68/110/108 66/108/106
f 67/109/107 69/111/109 70/112/110 68/110/108
f 69/111/109 71/113/111 72/114/112 70/112/110
f 71/113/111 73/115/113 74/116/114 72/114/112
f 73/115/113 75/117/115 76/118/116 74/116/114
f 75/117/115 77/119/117 78/120/118 76/118/116
f 77/119/117 79/121/119 80/122/120 78/120/118
f 79/121/119 81/123/121 82/124/122 80/122/120
f 81/123/121 43/125/83 46/126/86 82/124/122
f 44/127/123 43/128/124 83/129/125
f 47/130/126 44/127/123 83/129/125
f 49/131/127 47/130/126 83/129/125
f 51/132/128 49/131/127 83/129/125
f 53/133/129 51/132/128 83/129/125
f 55/134/130 53/133/129 83/129/125
f 57/135/131 55/134/130 83/129/125
f 59/136/132 57/135/131 83/129/125
f 61/137/133 59/136/132 83/129/125
f 63/138/134 61/137/133 83/129/125
f 65/139/135 63/138/134 83/129/125
f 67/140/136 65/139/135 83/129/125
f 69/141/137 67/140/136 83/129/125
f 71/142/138 69/141/137 83/129/125
f 73/143/139 71/142/138 83/129/125
f 75/144/140 73/143/139 83/129/125
f 77/145/141 75/144/140 83/129/125
f 79/146/142 77/145/141 83/129/125
f 81/147/143 79/146/142 83/129/125
f 43/128/124 81/147/143 83/129/125
f 46/148/144 45/149/145 84/150/146
f 45/149/145 48/151/147 84/150/146
f 48/151/147 50/152/148 84/150/146
f 50/152/148 52/153/149 84/150/146
f 52/153/149 54/154/150 84/150/146
f 54/154/150 56/155/151 84/150/146
f 56/155/151 58/156/152 84/150/146
f 58/156/152 60/157/153 84/150/146
f 60/157/153 62/158/154 84/150/146
f 62/158/154 64/159/155 84/150/146
f 64/159/155 66/160/156 84/150/146
f 66/160/156 68/161/157 84/150/146
f 68/161/157 70/162/158 84/150/146
f 70/162/158 72/163/159 84/150/146
f 72/163/159 74/164/160 84/150/146
f 74/164/160 76/165/161 84/150/146
f 76/165/161 78/166/162 84/150/146
f 78/166/162 80/167/163 84/150/146
f 80/167/163 82/168/164 84/150/146
f 82/168/164 46/148/144 84/150/146
f 85/169/165 86/170/166 87/171/167 88/172/168
f 86/170/169 89/173/170 90/174/171 87/171/172
f 89/173/173 91/175/174 92/176/175 90/174/176
f 91/175/177 93/177/178 94/178/179 92/176/180
f 93/177/181 95/179/182 96/180/183 94/178/184
f 95/179/185 97/181/186 98/182/187 96/180/188
f 97/181/189 99/183/190 100/184/191 98/182/192
f 99/183/193 101/185/194 102/186/195 100/184/196
f 101/185/197 103/187/198 104/188/199 102/186/200
f 103/187/201 105/189/202 106/190/203 104/188/204
f 105/189/205 107/191/206 108/192/207 106/190/208
f 107/191/209 85/193/210 88/194/211 108/192/212
f 86/195/213 85/196/214 109/197/215
f 89/198/216 86/195/213 109/197/215
f 91/199/217 89/198/216 109/197/215
f 93/200/218 91/199/217 109/197/215
f 95/201/219 93/200/218 109/197/215
f 97/202/220 95/201/219 109/197/215
f 99/203/221 97/202/220 109/197/215
f 101/204/222 99/203/221 109/197/215
f 103/205/223 101/204/222 109/197/215
f 105/206/224 103/205/223 109/197/215
f 107/207/225 105/206/224 109/197/215
f 85/196/214 107/207/225 109/197/215
f 88/208/226 87/209/227 110/210/228
f 87/209/227 90/211/229 110/210/228
f 90/211/229 92/212/230 110/210/228
f 92/212/230 94/213/231 110/210/228
f 94/213/231 96/214/232 110/210/228
f 96/214/232 98/215/233 110/210/228
f 98/215/233 100/216/234 110/210/228
f 100/216/234 102/217/235 110/210/228
f 102/217/235 104/218/236 110/210/228
f 104/218/236 106/219/237 110/210/228
f 106/219/237 108/220/238 110/210/228
f 108/220/238 88/208/226 110/210/228
