mtllib Table3.mtl
g pasted__pCube1 group2

# Vertex Positions:
v -104.38732 108.81908 56.77469
v 104.38732 108.81908 56.77469
v 104.38732 115.72725 56.77469
v -104.38732 115.72725 56.77469
v 104.38732 115.72725 -56.29279
v -104.38732 115.72725 -56.29279
v 104.38732 108.81908 -56.29279
v -104.38732 108.81908 -56.29279

# Vertex Texture Coordinates:
vt 0.375 0 
vt 0.625 0 
vt 0.625 0.25 
vt 0.375 0.25 
vt 0.625 0.5 
vt 0.375 0.5 
vt 0.625 0.75 
vt 0.375 0.75 
vt 0.625 1 
vt 0.375 1 
vt 0.875 0 
vt 0.875 0.25 
vt 0.125 0 
vt 0.125 0.25 

# Vertex Surface Normals:
vn 0 0 1
vn 0 0 1
vn 0 0 1
vn 0 0 1
vn 0 1 0
vn 0 1 0
vn 0 1 0
vn 0 1 0
vn 0 0 -1
vn 0 0 -1
vn 0 0 -1
vn 0 0 -1
vn 0 -1 0
vn 0 -1 0
vn 0 -1 0
vn 0 -1 0
vn 1 0 0
vn 1 0 0
vn 1 0 0
vn 1 0 0
vn -1 0 0
vn -1 0 0
vn -1 0 0
vn -1 0 0

# Faces:
usemtl Walnut Wood 6
f 1/1/1 2/2/2 3/3/3 4/4/4
f 4/4/5 3/3/6 5/5/7 6/6/8
f 6/6/9 5/5/10 7/7/11 8/8/12
f 8/8/13 7/7/14 2/9/15 1/10/16
f 2/2/17 7/11/18 5/12/19 3/3/20
f 8/13/21 1/1/22 4/4/23 6/14/24
g pasted__pasted__pasted__pasted__pCylinder1 pasted__pasted__pasted__group3 pasted__pasted__group4 pasted__group5 group6

# Vertex Positions:
v 81.17925 0 39.22241
v 79.39029 0 37.43344
v 79.39029 114.64127 37.43344
v 81.17925 114.64127 39.22241
v 76.9465 0 36.77863
v 76.9465 114.64127 36.77863
v 74.50273 0 37.43344
v 74.50273 114.64127 37.43344
v 72.71375 0 39.22241
v 72.71375 114.64127 39.22241
v 72.05894 0 41.66617
v 72.05894 114.64127 41.66617
v 72.71375 0 44.10995
v 72.71375 114.64127 44.10995
v 74.50273 0 45.89896
v 74.50273 114.64127 45.89896
v 76.9465 0 46.55374
v 76.9465 114.64127 46.55374
v 79.39029 0 45.89896
v 79.39029 114.64127 45.89896
v 81.17925 0 44.10995
v 81.17925 114.64127 44.10995
v 81.83406 0 41.66617
v 81.83406 114.64127 41.66617
v 76.9465 0 41.66617
v 76.9465 114.64127 41.66617

# Vertex Texture Coordinates:
vt 0.375 0.3125 
vt 0.39583 0.3125 
vt 0.39583 0.68844 
vt 0.375 0.68844 
vt 0.41667 0.3125 
vt 0.41667 0.68844 
vt 0.4375 0.3125 
vt 0.4375 0.68844 
vt 0.45833 0.3125 
vt 0.45833 0.68844 
vt 0.47917 0.3125 
vt 0.47917 0.68844 
vt 0.5 0.3125 
vt 0.5 0.68844 
vt 0.52083 0.3125 
vt 0.52083 0.68844 
vt 0.54167 0.3125 
vt 0.54167 0.68844 
vt 0.5625 0.3125 
vt 0.5625 0.68844 
vt 0.58333 0.3125 
vt 0.58333 0.68844 
vt 0.60417 0.3125 
vt 0.60417 0.68844 
vt 0.625 0.3125 
vt 0.625 0.68844 
vt 0.57812 0.02093 
vt 0.63532 0.07812 
vt 0.5 0.15 
vt 0.5 0 
vt 0.42188 0.02093 
vt 0.36468 0.07812 
vt 0.34375 0.15625 
vt 0.36468 0.23438 
vt 0.42188 0.29157 
vt 0.5 0.3125 
vt 0.57812 0.29157 
vt 0.63532 0.23438 
vt 0.65625 0.15625 
vt 0.63532 0.92188 
vt 0.57812 0.97907 
vt 0.5 0.8375 
vt 0.5 1 
vt 0.42188 0.97907 
vt 0.36468 0.92188 
vt 0.34375 0.84375 
vt 0.36468 0.76562 
vt 0.42188 0.70843 
vt 0.5 0.6875 
vt 0.57812 0.70843 
vt 0.63532 0.76562 
vt 0.65625 0.84375 

# Vertex Surface Normals:
vn 0.70711 0 -0.70711
vn 0.70711 0 -0.70711
vn 0.70711 0 -0.70711
vn 0.70711 0 -0.70711
vn 0.25882 0 -0.96593
vn 0.25882 0 -0.96593
vn 0.25882 0 -0.96593
vn 0.25882 0 -0.96593
vn -0.25882 0 -0.96593
vn -0.25882 0 -0.96593
vn -0.25882 0 -0.96593
vn -0.25882 0 -0.96593
vn -0.70711 0 -0.70711
vn -0.70711 0 -0.70711
vn -0.70711 0 -0.70711
vn -0.70711 0 -0.70711
vn -0.96593 0 -0.25882
vn -0.96593 0 -0.25882
vn -0.96593 0 -0.25882
vn -0.96593 0 -0.25882
vn -0.96593 0 0.25882
vn -0.96593 0 0.25882
vn -0.96593 0 0.25882
vn -0.96593 0 0.25882
vn -0.70711 0 0.70711
vn -0.70711 0 0.70711
vn -0.70711 0 0.70711
vn -0.70711 0 0.70711
vn -0.25882 0 0.96593
vn -0.25882 0 0.96593
vn -0.25882 0 0.96593
vn -0.25882 0 0.96593
vn 0.25882 0 0.96593
vn 0.25882 0 0.96593
vn 0.25882 0 0.96593
vn 0.25882 0 0.96593
vn 0.70711 0 0.70711
vn 0.70711 0 0.70711
vn 0.70711 0 0.70711
vn 0.70711 0 0.70711
vn 0.96593 0 0.25882
vn 0.96593 0 0.25882
vn 0.96593 0 0.25882
vn 0.96593 0 0.25882
vn 0.96593 0 -0.25882
vn 0.96593 0 -0.25882
vn 0.96593 0 -0.25882
vn 0.96593 0 -0.25882
vn 0 -1 -0
vn 0 -1 0
vn 0 -1 0
vn 0 -1 0
vn 0 -1 0
vn 0 -1 0
vn 0 -1 0
vn 0 -1 0
vn 0 -1 0
vn 0 -1 0
vn 0 -1 0
vn 0 -1 -0
vn 0 -1 -0
vn 0 1 0
vn 0 1 0
vn 0 1 0
vn 0 1 0
vn 0 1 -0
vn 0 1 0
vn 0 1 -0
vn 0 1 -0
vn 0 1 0
vn 0 1 0
vn 0 1 0
vn 0 1 0
vn 0 1 0

# Faces:
usemtl Walnut Wood 5
f 9/15/25 10/16/26 11/17/27 12/18/28
f 10/16/29 13/19/30 14/20/31 11/17/32
f 13/19/33 15/21/34 16/22/35 14/20/36
f 15/21/37 17/23/38 18/24/39 16/22/40
f 17/23/41 19/25/42 20/26/43 18/24/44
f 19/25/45 21/27/46 22/28/47 20/26/48
f 21/27/49 23/29/50 24/30/51 22/28/52
f 23/29/53 25/31/54 26/32/55 24/30/56
f 25/31/57 27/33/58 28/34/59 26/32/60
f 27/33/61 29/35/62 30/36/63 28/34/64
f 29/35/65 31/37/66 32/38/67 30/36/68
f 31/37/69 9/39/70 12/40/71 32/38/72
f 10/41/73 9/42/74 33/43/75
f 13/44/76 10/41/73 33/43/75
f 15/45/77 13/44/76 33/43/75
f 17/46/78 15/45/77 33/43/75
f 19/47/79 17/46/78 33/43/75
f 21/48/80 19/47/79 33/43/75
f 23/49/81 21/48/80 33/43/75
f 25/50/82 23/49/81 33/43/75
f 27/51/83 25/50/82 33/43/75
f 29/52/84 27/51/83 33/43/75
f 31/53/85 29/52/84 33/43/75
f 9/42/74 31/53/85 33/43/75
f 12/54/86 11/55/87 34/56/88
f 11/55/87 14/57/89 34/56/88
f 14/57/89 16/58/90 34/56/88
f 16/58/90 18/59/91 34/56/88
f 18/59/91 20/60/92 34/56/88
f 20/60/92 22/61/93 34/56/88
f 22/61/93 24/62/94 34/56/88
f 24/62/94 26/63/95 34/56/88
f 26/63/95 28/64/96 34/56/88
f 28/64/96 30/65/97 34/56/88
f 30/65/97 32/66/98 34/56/88
f 32/66/98 12/54/86 34/56/88
g pasted__pasted__pasted__pCylinder1 pasted__pasted__group3 pasted__group4 group5

# Vertex Positions:
v 81.17925 0 -38.9381
v 79.39029 0 -40.72707
v 79.39029 114.64127 -40.72707
v 81.17925 114.64127 -38.9381
v 76.9465 0 -41.38188
v 76.9465 114.64127 -41.38188
v 74.50273 0 -40.72707
v 74.50273 114.64127 -40.72707
v 72.71375 0 -38.9381
v 72.71375 114.64127 -38.9381
v 72.05894 0 -36.49432
v 72.05894 114.64127 -36.49432
v 72.71375 0 -34.05054
v 72.71375 114.64127 -34.05054
v 74.50273 0 -32.26157
v 74.50273 114.64127 -32.26157
v 76.9465 0 -31.60677
v 76.9465 114.64127 -31.60677
v 79.39029 0 -32.26157
v 79.39029 114.64127 -32.26157
v 81.17925 0 -34.05054
v 81.17925 114.64127 -34.05054
v 81.83406 0 -36.49432
v 81.83406 114.64127 -36.49432
v 76.9465 0 -36.49432
v 76.9465 114.64127 -36.49432

# Vertex Texture Coordinates:
vt 0.375 0.3125 
vt 0.39583 0.3125 
vt 0.39583 0.68844 
vt 0.375 0.68844 
vt 0.41667 0.3125 
vt 0.41667 0.68844 
vt 0.4375 0.3125 
vt 0.4375 0.68844 
vt 0.45833 0.3125 
vt 0.45833 0.68844 
vt 0.47917 0.3125 
vt 0.47917 0.68844 
vt 0.5 0.3125 
vt 0.5 0.68844 
vt 0.52083 0.3125 
vt 0.52083 0.68844 
vt 0.54167 0.3125 
vt 0.54167 0.68844 
vt 0.5625 0.3125 
vt 0.5625 0.68844 
vt 0.58333 0.3125 
vt 0.58333 0.68844 
vt 0.60417 0.3125 
vt 0.60417 0.68844 
vt 0.625 0.3125 
vt 0.625 0.68844 
vt 0.57812 0.02093 
vt 0.63532 0.07812 
vt 0.5 0.15 
vt 0.5 0 
vt 0.42188 0.02093 
vt 0.36468 0.07812 
vt 0.34375 0.15625 
vt 0.36468 0.23438 
vt 0.42188 0.29157 
vt 0.5 0.3125 
vt 0.57812 0.29157 
vt 0.63532 0.23438 
vt 0.65625 0.15625 
vt 0.63532 0.92188 
vt 0.57812 0.97907 
vt 0.5 0.8375 
vt 0.5 1 
vt 0.42188 0.97907 
vt 0.36468 0.92188 
vt 0.34375 0.84375 
vt 0.36468 0.76562 
vt 0.42188 0.70843 
vt 0.5 0.6875 
vt 0.57812 0.70843 
vt 0.63532 0.76562 
vt 0.65625 0.84375 

# Vertex Surface Normals:
vn 0.70711 0 -0.70711
vn 0.70711 0 -0.70711
vn 0.70711 0 -0.70711
vn 0.70711 0 -0.70711
vn 0.25882 0 -0.96593
vn 0.25882 0 -0.96593
vn 0.25882 0 -0.96593
vn 0.25882 0 -0.96593
vn -0.25882 0 -0.96593
vn -0.25882 0 -0.96593
vn -0.25882 0 -0.96593
vn -0.25882 0 -0.96593
vn -0.70711 0 -0.70711
vn -0.70711 0 -0.70711
vn -0.70711 0 -0.70711
vn -0.70711 0 -0.70711
vn -0.96593 0 -0.25882
vn -0.96593 0 -0.25882
vn -0.96593 0 -0.25882
vn -0.96593 0 -0.25882
vn -0.96593 0 0.25882
vn -0.96593 0 0.25882
vn -0.96593 0 0.25882
vn -0.96593 0 0.25882
vn -0.70711 0 0.70711
vn -0.70711 0 0.70711
vn -0.70711 0 0.70711
vn -0.70711 0 0.70711
vn -0.25882 0 0.96593
vn -0.25882 0 0.96593
vn -0.25882 0 0.96593
vn -0.25882 0 0.96593
vn 0.25882 0 0.96593
vn 0.25882 0 0.96593
vn 0.25882 0 0.96593
vn 0.25882 0 0.96593
vn 0.70711 0 0.70711
vn 0.70711 0 0.70711
vn 0.70711 0 0.70711
vn 0.70711 0 0.70711
vn 0.96593 0 0.25882
vn 0.96593 0 0.25882
vn 0.96593 0 0.25882
vn 0.96593 0 0.25882
vn 0.96593 0 -0.25882
vn 0.96593 0 -0.25882
vn 0.96593 0 -0.25882
vn 0.96593 0 -0.25882
vn 0 -1 -0
vn 0 -1 0
vn 0 -1 0
vn 0 -1 0
vn 0 -1 0
vn 0 -1 0
vn 0 -1 0
vn 0 -1 0
vn 0 -1 0
vn 0 -1 0
vn 0 -1 0
vn 0 -1 -0
vn 0 -1 -0
vn 0 1 0
vn 0 1 0
vn 0 1 0
vn 0 1 0
vn 0 1 -0
vn 0 1 0
vn 0 1 -0
vn 0 1 -0
vn 0 1 0
vn 0 1 0
vn 0 1 0
vn 0 1 0
vn 0 1 0

# Faces:
usemtl Walnut Wood 5
f 35/67/99 36/68/100 37/69/101 38/70/102
f 36/68/103 39/71/104 40/72/105 37/69/106
f 39/71/107 41/73/108 42/74/109 40/72/110
f 41/73/111 43/75/112 44/76/113 42/74/114
f 43/75/115 45/77/116 46/78/117 44/76/118
f 45/77/119 47/79/120 48/80/121 46/78/122
f 47/79/123 49/81/124 50/82/125 48/80/126
f 49/81/127 51/83/128 52/84/129 50/82/130
f 51/83/131 53/85/132 54/86/133 52/84/134
f 53/85/135 55/87/136 56/88/137 54/86/138
f 55/87/139 57/89/140 58/90/141 56/88/142
f 57/89/143 35/91/144 38/92/145 58/90/146
f 36/93/147 35/94/148 59/95/149
f 39/96/150 36/93/147 59/95/149
f 41/97/151 39/96/150 59/95/149
f 43/98/152 41/97/151 59/95/149
f 45/99/153 43/98/152 59/95/149
f 47/100/154 45/99/153 59/95/149
f 49/101/155 47/100/154 59/95/149
f 51/102/156 49/101/155 59/95/149
f 53/103/157 51/102/156 59/95/149
f 55/104/158 53/103/157 59/95/149
f 57/105/159 55/104/158 59/95/149
f 35/94/148 57/105/159 59/95/149
f 38/106/160 37/107/161 60/108/162
f 37/107/161 40/109/163 60/108/162
f 40/109/163 42/110/164 60/108/162
f 42/110/164 44/111/165 60/108/162
f 44/111/165 46/112/166 60/108/162
f 46/112/166 48/113/167 60/108/162
f 48/113/167 50/114/168 60/108/162
f 50/114/168 52/115/169 60/108/162
f 52/115/169 54/116/170 60/108/162
f 54/116/170 56/117/171 60/108/162
f 56/117/171 58/118/172 60/108/162
f 58/118/172 38/106/160 60/108/162
g pasted__pasted__pCylinder1 pasted__group3 group4

# Vertex Positions:
v -84.38698 0 -38.9381
v -86.17594 0 -40.72707
v -86.17594 114.64127 -40.72707
v -84.38698 114.64127 -38.9381
v -88.61973 0 -41.38188
v -88.61973 114.64127 -41.38188
v -91.06351 0 -40.72707
v -91.06351 114.64127 -40.72707
v -92.85248 0 -38.9381
v -92.85248 114.64127 -38.9381
v -93.50729 0 -36.49432
v -93.50729 114.64127 -36.49432
v -92.85248 0 -34.05054
v -92.85248 114.64127 -34.05054
v -91.06351 0 -32.26157
v -91.06351 114.64127 -32.26157
v -88.61973 0 -31.60677
v -88.61973 114.64127 -31.60677
v -86.17594 0 -32.26157
v -86.17594 114.64127 -32.26157
v -84.38698 0 -34.05054
v -84.38698 114.64127 -34.05054
v -83.73217 0 -36.49432
v -83.73217 114.64127 -36.49432
v -88.61973 0 -36.49432
v -88.61973 114.64127 -36.49432

# Vertex Texture Coordinates:
vt 0.375 0.3125 
vt 0.39583 0.3125 
vt 0.39583 0.68844 
vt 0.375 0.68844 
vt 0.41667 0.3125 
vt 0.41667 0.68844 
vt 0.4375 0.3125 
vt 0.4375 0.68844 
vt 0.45833 0.3125 
vt 0.45833 0.68844 
vt 0.47917 0.3125 
vt 0.47917 0.68844 
vt 0.5 0.3125 
vt 0.5 0.68844 
vt 0.52083 0.3125 
vt 0.52083 0.68844 
vt 0.54167 0.3125 
vt 0.54167 0.68844 
vt 0.5625 0.3125 
vt 0.5625 0.68844 
vt 0.58333 0.3125 
vt 0.58333 0.68844 
vt 0.60417 0.3125 
vt 0.60417 0.68844 
vt 0.625 0.3125 
vt 0.625 0.68844 
vt 0.57812 0.02093 
vt 0.63532 0.07812 
vt 0.5 0.15 
vt 0.5 0 
vt 0.42188 0.02093 
vt 0.36468 0.07812 
vt 0.34375 0.15625 
vt 0.36468 0.23438 
vt 0.42188 0.29157 
vt 0.5 0.3125 
vt 0.57812 0.29157 
vt 0.63532 0.23438 
vt 0.65625 0.15625 
vt 0.63532 0.92188 
vt 0.57812 0.97907 
vt 0.5 0.8375 
vt 0.5 1 
vt 0.42188 0.97907 
vt 0.36468 0.92188 
vt 0.34375 0.84375 
vt 0.36468 0.76562 
vt 0.42188 0.70843 
vt 0.5 0.6875 
vt 0.57812 0.70843 
vt 0.63532 0.76562 
vt 0.65625 0.84375 

# Vertex Surface Normals:
vn 0.70711 0 -0.70711
vn 0.70711 0 -0.70711
vn 0.70711 0 -0.70711
vn 0.70711 0 -0.70711
vn 0.25882 0 -0.96593
vn 0.25882 0 -0.96593
vn 0.25882 0 -0.96593
vn 0.25882 0 -0.96593
vn -0.25882 0 -0.96593
vn -0.25882 0 -0.96593
vn -0.25882 0 -0.96593
vn -0.25882 0 -0.96593
vn -0.70711 0 -0.70711
vn -0.70711 0 -0.70711
vn -0.70711 0 -0.70711
vn -0.70711 0 -0.70711
vn -0.96593 0 -0.25882
vn -0.96593 0 -0.25882
vn -0.96593 0 -0.25882
vn -0.96593 0 -0.25882
vn -0.96593 0 0.25882
vn -0.96593 0 0.25882
vn -0.96593 0 0.25882
vn -0.96593 0 0.25882
vn -0.70711 0 0.70711
vn -0.70711 0 0.70711
vn -0.70711 0 0.70711
vn -0.70711 0 0.70711
vn -0.25882 0 0.96593
vn -0.25882 0 0.96593
vn -0.25882 0 0.96593
vn -0.25882 0 0.96593
vn 0.25882 0 0.96593
vn 0.25882 0 0.96593
vn 0.25882 0 0.96593
vn 0.25882 0 0.96593
vn 0.70711 0 0.70711
vn 0.70711 0 0.70711
vn 0.70711 0 0.70711
vn 0.70711 0 0.70711
vn 0.96593 0 0.25882
vn 0.96593 0 0.25882
vn 0.96593 0 0.25882
vn 0.96593 0 0.25882
vn 0.96593 0 -0.25882
vn 0.96593 0 -0.25882
vn 0.96593 0 -0.25882
vn 0.96593 0 -0.25882
vn 0 -1 -0
vn 0 -1 0
vn 0 -1 0
vn 0 -1 0
vn 0 -1 0
vn 0 -1 0
vn 0 -1 0
vn 0 -1 0
vn 0 -1 0
vn 0 -1 0
vn 0 -1 0
vn 0 -1 -0
vn 0 -1 -0
vn 0 1 0
vn 0 1 0
vn 0 1 0
vn 0 1 0
vn 0 1 -0
vn 0 1 0
vn 0 1 -0
vn 0 1 -0
vn 0 1 0
vn 0 1 0
vn 0 1 0
vn 0 1 0
vn 0 1 0

# Faces:
usemtl Walnut Wood 5
f 61/119/173 62/120/174 63/121/175 64/122/176
f 62/120/177 65/123/178 66/124/179 63/121/180
f 65/123/181 67/125/182 68/126/183 66/124/184
f 67/125/185 69/127/186 70/128/187 68/126/188
f 69/127/189 71/129/190 72/130/191 70/128/192
f 71/129/193 73/131/194 74/132/195 72/130/196
f 73/131/197 75/133/198 76/134/199 74/132/200
f 75/133/201 77/135/202 78/136/203 76/134/204
f 77/135/205 79/137/206 80/138/207 78/136/208
f 79/137/209 81/139/210 82/140/211 80/138/212
f 81/139/213 83/141/214 84/142/215 82/140/216
f 83/141/217 61/143/218 64/144/219 84/142/220
f 62/145/221 61/146/222 85/147/223
f 65/148/224 62/145/221 85/147/223
f 67/149/225 65/148/224 85/147/223
f 69/150/226 67/149/225 85/147/223
f 71/151/227 69/150/226 85/147/223
f 73/152/228 71/151/227 85/147/223
f 75/153/229 73/152/228 85/147/223
f 77/154/230 75/153/229 85/147/223
f 79/155/231 77/154/230 85/147/223
f 81/156/232 79/155/231 85/147/223
f 83/157/233 81/156/232 85/147/223
f 61/146/222 83/157/233 85/147/223
f 64/158/234 63/159/235 86/160/236
f 63/159/235 66/161/237 86/160/236
f 66/161/237 68/162/238 86/160/236
f 68/162/238 70/163/239 86/160/236
f 70/163/239 72/164/240 86/160/236
f 72/164/240 74/165/241 86/160/236
f 74/165/241 76/166/242 86/160/236
f 76/166/242 78/167/243 86/160/236
f 78/167/243 80/168/244 86/160/236
f 80/168/244 82/169/245 86/160/236
f 82/169/245 84/170/246 86/160/236
f 84/170/246 64/158/234 86/160/236
g pasted__pCylinder1 group3

# Vertex Positions:
v -84.38698 0 36.9921
v -86.17594 0 35.20309
v -86.17594 114.64127 35.20309
v -84.38698 114.64127 36.9921
v -88.61973 0 34.54828
v -88.61973 114.64127 34.54828
v -91.06351 0 35.20309
v -91.06351 114.64127 35.20309
v -92.85248 0 36.9921
v -92.85248 114.64127 36.9921
v -93.50729 0 39.43588
v -93.50729 114.64127 39.43588
v -92.85248 0 41.87964
v -92.85248 114.64127 41.87964
v -91.06351 0 43.66861
v -91.06351 114.64127 43.66861
v -88.61973 0 44.32343
v -88.61973 114.64127 44.32343
v -86.17594 0 43.66861
v -86.17594 114.64127 43.66861
v -84.38698 0 41.87964
v -84.38698 114.64127 41.87964
v -83.73217 0 39.43588
v -83.73217 114.64127 39.43588
v -88.61973 0 39.43588
v -88.61973 114.64127 39.43588

# Vertex Texture Coordinates:
vt 0.375 0.3125 
vt 0.39583 0.3125 
vt 0.39583 0.68844 
vt 0.375 0.68844 
vt 0.41667 0.3125 
vt 0.41667 0.68844 
vt 0.4375 0.3125 
vt 0.4375 0.68844 
vt 0.45833 0.3125 
vt 0.45833 0.68844 
vt 0.47917 0.3125 
vt 0.47917 0.68844 
vt 0.5 0.3125 
vt 0.5 0.68844 
vt 0.52083 0.3125 
vt 0.52083 0.68844 
vt 0.54167 0.3125 
vt 0.54167 0.68844 
vt 0.5625 0.3125 
vt 0.5625 0.68844 
vt 0.58333 0.3125 
vt 0.58333 0.68844 
vt 0.60417 0.3125 
vt 0.60417 0.68844 
vt 0.625 0.3125 
vt 0.625 0.68844 
vt 0.57812 0.02093 
vt 0.63532 0.07812 
vt 0.5 0.15 
vt 0.5 0 
vt 0.42188 0.02093 
vt 0.36468 0.07812 
vt 0.34375 0.15625 
vt 0.36468 0.23438 
vt 0.42188 0.29157 
vt 0.5 0.3125 
vt 0.57812 0.29157 
vt 0.63532 0.23438 
vt 0.65625 0.15625 
vt 0.63532 0.92188 
vt 0.57812 0.97907 
vt 0.5 0.8375 
vt 0.5 1 
vt 0.42188 0.97907 
vt 0.36468 0.92188 
vt 0.34375 0.84375 
vt 0.36468 0.76562 
vt 0.42188 0.70843 
vt 0.5 0.6875 
vt 0.57812 0.70843 
vt 0.63532 0.76562 
vt 0.65625 0.84375 

# Vertex Surface Normals:
vn 0.70711 0 -0.70711
vn 0.70711 0 -0.70711
vn 0.70711 0 -0.70711
vn 0.70711 0 -0.70711
vn 0.25882 0 -0.96593
vn 0.25882 0 -0.96593
vn 0.25882 0 -0.96593
vn 0.25882 0 -0.96593
vn -0.25882 0 -0.96593
vn -0.25882 0 -0.96593
vn -0.25882 0 -0.96593
vn -0.25882 0 -0.96593
vn -0.70711 0 -0.70711
vn -0.70711 0 -0.70711
vn -0.70711 0 -0.70711
vn -0.70711 0 -0.70711
vn -0.96593 0 -0.25882
vn -0.96593 0 -0.25882
vn -0.96593 0 -0.25882
vn -0.96593 0 -0.25882
vn -0.96593 0 0.25882
vn -0.96593 0 0.25882
vn -0.96593 0 0.25882
vn -0.96593 0 0.25882
vn -0.70711 0 0.70711
vn -0.70711 0 0.70711
vn -0.70711 0 0.70711
vn -0.70711 0 0.70711
vn -0.25882 0 0.96593
vn -0.25882 0 0.96593
vn -0.25882 0 0.96593
vn -0.25882 0 0.96593
vn 0.25882 0 0.96593
vn 0.25882 0 0.96593
vn 0.25882 0 0.96593
vn 0.25882 0 0.96593
vn 0.70711 0 0.70711
vn 0.70711 0 0.70711
vn 0.70711 0 0.70711
vn 0.70711 0 0.70711
vn 0.96593 0 0.25882
vn 0.96593 0 0.25882
vn 0.96593 0 0.25882
vn 0.96593 0 0.25882
vn 0.96593 0 -0.25882
vn 0.96593 0 -0.25882
vn 0.96593 0 -0.25882
vn 0.96593 0 -0.25882
vn 0 -1 -0
vn 0 -1 0
vn 0 -1 0
vn 0 -1 0
vn 0 -1 0
vn 0 -1 0
vn 0 -1 0
vn 0 -1 0
vn 0 -1 0
vn 0 -1 0
vn 0 -1 0
vn 0 -1 -0
vn 0 -1 -0
vn 0 1 0
vn 0 1 0
vn 0 1 0
vn 0 1 0
vn 0 1 -0
vn 0 1 0
vn 0 1 -0
vn 0 1 -0
vn 0 1 0
vn 0 1 0
vn 0 1 0
vn 0 1 0
vn 0 1 0

# Faces:
usemtl Walnut Wood 5
f 87/171/247 88/172/248 89/173/249 90/174/250
f 88/172/251 91/175/252 92/176/253 89/173/254
f 91/175/255 93/177/256 94/178/257 92/176/258
f 93/177/259 95/179/260 96/180/261 94/178/262
f 95/179/263 97/181/264 98/182/265 96/180/266
f 97/181/267 99/183/268 100/184/269 98/182/270
f 99/183/271 101/185/272 102/186/273 100/184/274
f 101/185/275 103/187/276 104/188/277 102/186/278
f 103/187/279 105/189/280 106/190/281 104/188/282
f 105/189/283 107/191/284 108/192/285 106/190/286
f 107/191/287 109/193/288 110/194/289 108/192/290
f 109/193/291 87/195/292 90/196/293 110/194/294
f 88/197/295 87/198/296 111/199/297
f 91/200/298 88/197/295 111/199/297
f 93/201/299 91/200/298 111/199/297
f 95/202/300 93/201/299 111/199/297
f 97/203/301 95/202/300 111/199/297
f 99/204/302 97/203/301 111/199/297
f 101/205/303 99/204/302 111/199/297
f 103/206/304 101/205/303 111/199/297
f 105/207/305 103/206/304 111/199/297
f 107/208/306 105/207/305 111/199/297
f 109/209/307 107/208/306 111/199/297
f 87/198/296 109/209/307 111/199/297
f 90/210/308 89/211/309 112/212/310
f 89/211/309 92/213/311 112/212/310
f 92/213/311 94/214/312 112/212/310
f 94/214/312 96/215/313 112/212/310
f 96/215/313 98/216/314 112/212/310
f 98/216/314 100/217/315 112/212/310
f 100/217/315 102/218/316 112/212/310
f 102/218/316 104/219/317 112/212/310
f 104/219/317 106/220/318 112/212/310
f 106/220/318 108/221/319 112/212/310
f 108/221/319 110/222/320 112/212/310
f 110/222/320 90/210/308 112/212/310
