mtllib Table2.mtl
g pCylinder1

# Vertex Positions:
v 4.23275 0.91626 -2.44378
v 2.44378 0.91626 -4.23275
v 2.44378 115.55753 -4.23275
v 4.23275 115.55753 -2.44378
v 0 0.91626 -4.88756
v 0 115.55753 -4.88756
v -2.44378 0.91626 -4.23275
v -2.44378 115.55753 -4.23275
v -4.23275 0.91626 -2.44378
v -4.23275 115.55753 -2.44378
v -4.88756 0.91626 0
v -4.88756 115.55753 0
v -4.23275 0.91626 2.44378
v -4.23275 115.55753 2.44378
v -2.44378 0.91626 4.23275
v -2.44378 115.55753 4.23275
v 0 0.91626 4.88756
v 0 115.55753 4.88756
v 2.44378 0.91626 4.23275
v 2.44378 115.55753 4.23275
v 4.23275 0.91626 2.44378
v 4.23275 115.55753 2.44378
v 4.88756 0.91626 0
v 4.88756 115.55753 0
v 0 0.91626 0
v 0 115.55753 0

# Vertex Texture Coordinates:
vt 0.375 0.3125 
vt 0.39583 0.3125 
vt 0.39583 0.68844 
vt 0.375 0.68844 
vt 0.41667 0.3125 
vt 0.41667 0.68844 
vt 0.4375 0.3125 
vt 0.4375 0.68844 
vt 0.45833 0.3125 
vt 0.45833 0.68844 
vt 0.47917 0.3125 
vt 0.47917 0.68844 
vt 0.5 0.3125 
vt 0.5 0.68844 
vt 0.52083 0.3125 
vt 0.52083 0.68844 
vt 0.54167 0.3125 
vt 0.54167 0.68844 
vt 0.5625 0.3125 
vt 0.5625 0.68844 
vt 0.58333 0.3125 
vt 0.58333 0.68844 
vt 0.60417 0.3125 
vt 0.60417 0.68844 
vt 0.625 0.3125 
vt 0.625 0.68844 
vt 0.57812 0.02093 
vt 0.63532 0.07812 
vt 0.5 0.15 
vt 0.5 0 
vt 0.42188 0.02093 
vt 0.36468 0.07812 
vt 0.34375 0.15625 
vt 0.36468 0.23438 
vt 0.42188 0.29157 
vt 0.5 0.3125 
vt 0.57812 0.29157 
vt 0.63532 0.23438 
vt 0.65625 0.15625 
vt 0.63532 0.92188 
vt 0.57812 0.97907 
vt 0.5 0.8375 
vt 0.5 1 
vt 0.42188 0.97907 
vt 0.36468 0.92188 
vt 0.34375 0.84375 
vt 0.36468 0.76562 
vt 0.42188 0.70843 
vt 0.5 0.6875 
vt 0.57812 0.70843 
vt 0.63532 0.76562 
vt 0.65625 0.84375 

# Vertex Surface Normals:
vn 0.70711 0 -0.70711
vn 0.70711 0 -0.70711
vn 0.70711 0 -0.70711
vn 0.70711 0 -0.70711
vn 0.25882 0 -0.96593
vn 0.25882 0 -0.96593
vn 0.25882 0 -0.96593
vn 0.25882 0 -0.96593
vn -0.25882 0 -0.96593
vn -0.25882 0 -0.96593
vn -0.25882 0 -0.96593
vn -0.25882 0 -0.96593
vn -0.70711 0 -0.70711
vn -0.70711 0 -0.70711
vn -0.70711 0 -0.70711
vn -0.70711 0 -0.70711
vn -0.96593 0 -0.25882
vn -0.96593 0 -0.25882
vn -0.96593 0 -0.25882
vn -0.96593 0 -0.25882
vn -0.96593 0 0.25882
vn -0.96593 0 0.25882
vn -0.96593 0 0.25882
vn -0.96593 0 0.25882
vn -0.70711 0 0.70711
vn -0.70711 0 0.70711
vn -0.70711 0 0.70711
vn -0.70711 0 0.70711
vn -0.25882 0 0.96593
vn -0.25882 0 0.96593
vn -0.25882 0 0.96593
vn -0.25882 0 0.96593
vn 0.25882 0 0.96593
vn 0.25882 0 0.96593
vn 0.25882 0 0.96593
vn 0.25882 0 0.96593
vn 0.70711 0 0.70711
vn 0.70711 0 0.70711
vn 0.70711 0 0.70711
vn 0.70711 0 0.70711
vn 0.96593 0 0.25882
vn 0.96593 0 0.25882
vn 0.96593 0 0.25882
vn 0.96593 0 0.25882
vn 0.96593 0 -0.25882
vn 0.96593 0 -0.25882
vn 0.96593 0 -0.25882
vn 0.96593 0 -0.25882
vn 0 -1 -0
vn 0 -1 0
vn 0 -1 0
vn 0 -1 0
vn 0 -1 0
vn 0 -1 0
vn 0 -1 0
vn 0 -1 0
vn 0 -1 0
vn 0 -1 0
vn 0 -1 0
vn 0 -1 -0
vn 0 -1 -0
vn 0 1 0
vn 0 1 0
vn 0 1 0
vn 0 1 0
vn 0 1 -0
vn 0 1 0
vn 0 1 -0
vn 0 1 -0
vn 0 1 0
vn 0 1 0
vn 0 1 0
vn 0 1 0
vn 0 1 0

# Faces:
usemtl initialShadingGroup
f 1/1/1 2/2/2 3/3/3 4/4/4
f 2/2/5 5/5/6 6/6/7 3/3/8
f 5/5/9 7/7/10 8/8/11 6/6/12
f 7/7/13 9/9/14 10/10/15 8/8/16
f 9/9/17 11/11/18 12/12/19 10/10/20
f 11/11/21 13/13/22 14/14/23 12/12/24
f 13/13/25 15/15/26 16/16/27 14/14/28
f 15/15/29 17/17/30 18/18/31 16/16/32
f 17/17/33 19/19/34 20/20/35 18/18/36
f 19/19/37 21/21/38 22/22/39 20/20/40
f 21/21/41 23/23/42 24/24/43 22/22/44
f 23/23/45 1/25/46 4/26/47 24/24/48
f 2/27/49 1/28/50 25/29/51
f 5/30/52 2/27/49 25/29/51
f 7/31/53 5/30/52 25/29/51
f 9/32/54 7/31/53 25/29/51
f 11/33/55 9/32/54 25/29/51
f 13/34/56 11/33/55 25/29/51
f 15/35/57 13/34/56 25/29/51
f 17/36/58 15/35/57 25/29/51
f 19/37/59 17/36/58 25/29/51
f 21/38/60 19/37/59 25/29/51
f 23/39/61 21/38/60 25/29/51
f 1/28/50 23/39/61 25/29/51
f 4/40/62 3/41/63 26/42/64
f 3/41/63 6/43/65 26/42/64
f 6/43/65 8/44/66 26/42/64
f 8/44/66 10/45/67 26/42/64
f 10/45/67 12/46/68 26/42/64
f 12/46/68 14/47/69 26/42/64
f 14/47/69 16/48/70 26/42/64
f 16/48/70 18/49/71 26/42/64
f 18/49/71 20/50/72 26/42/64
f 20/50/72 22/51/73 26/42/64
f 22/51/73 24/52/74 26/42/64
f 24/52/74 4/40/62 26/42/64
g pCube2

# Vertex Positions:
v -104.38732 109.73534 56.53373
v 104.38732 109.73534 56.53373
v 104.38732 116.64351 56.53373
v -104.38732 116.64351 56.53373
v 104.38732 116.64351 -56.53373
v -104.38732 116.64351 -56.53373
v 104.38732 109.73534 -56.53373
v -104.38732 109.73534 -56.53373
v 39.34095 -1.97922 -12.78265
v 33.46541 -1.97922 -24.31404
v 33.46541 1.97922 -24.31404
v 39.34095 1.97922 -12.78265
v 24.31404 -1.97922 -33.46541
v 24.31404 1.97922 -33.46541
v 12.78265 -1.97922 -39.34094
v 12.78265 1.97922 -39.34094
v 0 -1.97922 -41.36552
v 0 1.97922 -41.36552
v -12.78265 -1.97922 -39.34094
v -12.78265 1.97922 -39.34094
v -24.31404 -1.97922 -33.4654
v -24.31404 1.97922 -33.4654
v -33.4654 -1.97922 -24.31404
v -33.4654 1.97922 -24.31404
v -39.34093 -1.97922 -12.78264
v -39.34093 1.97922 -12.78264
v -41.36551 -1.97922 0
v -41.36551 1.97922 0
v -39.34093 -1.97922 12.78264
v -39.34093 1.97922 12.78264
v -33.4654 -1.97922 24.31403
v -33.4654 1.97922 24.31403
v -24.31403 -1.97922 33.46539
v -24.31403 1.97922 33.46539
v -12.78264 -1.97922 39.34093
v -12.78264 1.97922 39.34093
v -0 -1.97922 41.3655
v -0 1.97922 41.3655
v 12.78264 -1.97922 39.34093
v 12.78264 1.97922 39.34093
v 24.31403 -1.97922 33.46539
v 24.31403 1.97922 33.46539
v 33.46539 -1.97922 24.31403
v 33.46539 1.97922 24.31403
v 39.34093 -1.97922 12.78264
v 39.34093 1.97922 12.78264
v 41.3655 -1.97922 0
v 41.3655 1.97922 0
v 0 -1.97922 0
v 0 1.97922 0

# Vertex Texture Coordinates:
vt 0.375 0 
vt 0.625 0 
vt 0.625 0.25 
vt 0.375 0.25 
vt 0.625 0.5 
vt 0.375 0.5 
vt 0.625 0.75 
vt 0.375 0.75 
vt 0.625 1 
vt 0.375 1 
vt 0.875 0 
vt 0.875 0.25 
vt 0.125 0 
vt 0.125 0.25 
vt 0.375 0.3125 
vt 0.3875 0.3125 
vt 0.3875 0.68844 
vt 0.375 0.68844 
vt 0.4 0.3125 
vt 0.4 0.68844 
vt 0.4125 0.3125 
vt 0.4125 0.68844 
vt 0.425 0.3125 
vt 0.425 0.68844 
vt 0.4375 0.3125 
vt 0.4375 0.68844 
vt 0.45 0.3125 
vt 0.45 0.68844 
vt 0.4625 0.3125 
vt 0.4625 0.68844 
vt 0.475 0.3125 
vt 0.475 0.68844 
vt 0.4875 0.3125 
vt 0.4875 0.68844 
vt 0.5 0.3125 
vt 0.5 0.68844 
vt 0.5125 0.3125 
vt 0.5125 0.68844 
vt 0.525 0.3125 
vt 0.525 0.68844 
vt 0.5375 0.3125 
vt 0.5375 0.68844 
vt 0.55 0.3125 
vt 0.55 0.68844 
vt 0.5625 0.3125 
vt 0.5625 0.68844 
vt 0.575 0.3125 
vt 0.575 0.68844 
vt 0.5875 0.3125 
vt 0.5875 0.68844 
vt 0.6 0.3125 
vt 0.6 0.68844 
vt 0.6125 0.3125 
vt 0.6125 0.68844 
vt 0.625 0.3125 
vt 0.625 0.68844 
vt 0.62641 0.06441 
vt 0.6486 0.10797 
vt 0.5 0.15 
vt 0.59184 0.02984 
vt 0.54828 0.00765 
vt 0.5 -0 
vt 0.45172 0.00765 
vt 0.40816 0.02984 
vt 0.37359 0.06441 
vt 0.3514 0.10797 
vt 0.34375 0.15625 
vt 0.3514 0.20453 
vt 0.37359 0.24809 
vt 0.40816 0.28266 
vt 0.45172 0.30485 
vt 0.5 0.3125 
vt 0.54828 0.30485 
vt 0.59184 0.28266 
vt 0.62641 0.24809 
vt 0.6486 0.20453 
vt 0.65625 0.15625 
vt 0.6486 0.89203 
vt 0.62641 0.93559 
vt 0.5 0.8375 
vt 0.59184 0.97016 
vt 0.54828 0.99235 
vt 0.5 1 
vt 0.45172 0.99235 
vt 0.40816 0.97016 
vt 0.37359 0.93559 
vt 0.3514 0.89203 
vt 0.34375 0.84375 
vt 0.3514 0.79547 
vt 0.37359 0.75191 
vt 0.40816 0.71734 
vt 0.45172 0.69515 
vt 0.5 0.6875 
vt 0.54828 0.69515 
vt 0.59184 0.71734 
vt 0.62641 0.75191 
vt 0.6486 0.79547 
vt 0.65625 0.84375 

# Vertex Surface Normals:
vn 0 0 1
vn 0 0 1
vn 0 0 1
vn 0 0 1
vn 0 1 0
vn 0 1 0
vn 0 1 0
vn 0 1 0
vn 0 0 -1
vn 0 0 -1
vn 0 0 -1
vn 0 0 -1
vn 0 -1 0
vn 0 -1 0
vn 0 -1 0
vn 0 -1 0
vn 1 0 0
vn 1 0 0
vn 1 0 0
vn 1 0 0
vn -1 0 0
vn -1 0 0
vn -1 0 0
vn -1 0 0
vn 0.95106 0 -0.30902
vn 0.80902 0 -0.58779
vn 0.80902 0 -0.58779
vn 0.95106 0 -0.30902
vn 0.58779 0 -0.80902
vn 0.58779 0 -0.80902
vn 0.30902 0 -0.95106
vn 0.30902 0 -0.95106
vn -0 0 -1
vn -0 0 -1
vn -0.30902 0 -0.95106
vn -0.30902 0 -0.95106
vn -0.58779 0 -0.80902
vn -0.58779 0 -0.80902
vn -0.80902 0 -0.58779
vn -0.80902 0 -0.58779
vn -0.95106 0 -0.30902
vn -0.95106 0 -0.30902
vn -1 0 0
vn -1 0 0
vn -0.95106 0 0.30902
vn -0.95106 0 0.30902
vn -0.80902 0 0.58779
vn -0.80902 0 0.58779
vn -0.58779 0 0.80902
vn -0.58779 0 0.80902
vn -0.30902 0 0.95106
vn -0.30902 0 0.95106
vn 0 0 1
vn 0 0 1
vn 0.30902 0 0.95106
vn 0.30902 0 0.95106
vn 0.58779 0 0.80902
vn 0.58779 0 0.80902
vn 0.80902 0 0.58779
vn 0.80902 0 0.58779
vn 0.95106 0 0.30902
vn 0.95106 0 0.30902
vn 1 0 0
vn 1 0 0
vn 0 -1 0
vn 0 -1 0
vn 0 -1 0
vn 0 -1 0
vn 0 -1 0
vn 0 -1 0
vn 0 -1 0
vn 0 -1 0
vn 0 -1 0
vn 0 -1 0
vn 0 -1 0
vn 0 -1 0
vn 0 -1 0
vn 0 -1 0
vn 0 -1 0
vn 0 -1 0
vn 0 -1 0
vn 0 -1 0
vn 0 -1 0
vn 0 -1 0
vn 0 -1 0
vn 0 1 0
vn 0 1 0
vn 0 1 0
vn 0 1 0
vn 0 1 0
vn 0 1 0
vn 0 1 0
vn 0 1 0
vn 0 1 0
vn 0 1 0
vn 0 1 0
vn 0 1 0
vn 0 1 0
vn 0 1 0
vn 0 1 0
vn 0 1 0
vn 0 1 0
vn 0 1 0
vn 0 1 0
vn 0 1 0
vn 0 1 0

# Faces:
usemtl Metal
f 27/53/75 28/54/76 29/55/77 30/56/78
f 30/56/79 29/55/80 31/57/81 32/58/82
f 32/58/83 31/57/84 33/59/85 34/60/86
f 34/60/87 33/59/88 28/61/89 27/62/90
f 28/54/91 33/63/92 31/64/93 29/55/94
f 34/65/95 27/53/96 30/56/97 32/66/98
f 35/67/99 36/68/100 37/69/101 38/70/102
f 36/68/100 39/71/103 40/72/104 37/69/101
f 39/71/103 41/73/105 42/74/106 40/72/104
f 41/73/105 43/75/107 44/76/108 42/74/106
f 43/75/107 45/77/109 46/78/110 44/76/108
f 45/77/109 47/79/111 48/80/112 46/78/110
f 47/79/111 49/81/113 50/82/114 48/80/112
f 49/81/113 51/83/115 52/84/116 50/82/114
f 51/83/115 53/85/117 54/86/118 52/84/116
f 53/85/117 55/87/119 56/88/120 54/86/118
f 55/87/119 57/89/121 58/90/122 56/88/120
f 57/89/121 59/91/123 60/92/124 58/90/122
f 59/91/123 61/93/125 62/94/126 60/92/124
f 61/93/125 63/95/127 64/96/128 62/94/126
f 63/95/127 65/97/129 66/98/130 64/96/128
f 65/97/129 67/99/131 68/100/132 66/98/130
f 67/99/131 69/101/133 70/102/134 68/100/132
f 69/101/133 71/103/135 72/104/136 70/102/134
f 71/103/135 73/105/137 74/106/138 72/104/136
f 73/105/137 35/107/99 38/108/102 74/106/138
f 36/109/139 35/110/140 75/111/141
f 39/112/142 36/109/139 75/111/141
f 41/113/143 39/112/142 75/111/141
f 43/114/144 41/113/143 75/111/141
f 45/115/145 43/114/144 75/111/141
f 47/116/146 45/115/145 75/111/141
f 49/117/147 47/116/146 75/111/141
f 51/118/148 49/117/147 75/111/141
f 53/119/149 51/118/148 75/111/141
f 55/120/150 53/119/149 75/111/141
f 57/121/151 55/120/150 75/111/141
f 59/122/152 57/121/151 75/111/141
f 61/123/153 59/122/152 75/111/141
f 63/124/154 61/123/153 75/111/141
f 65/125/155 63/124/154 75/111/141
f 67/126/156 65/125/155 75/111/141
f 69/127/157 67/126/156 75/111/141
f 71/128/158 69/127/157 75/111/141
f 73/129/159 71/128/158 75/111/141
f 35/110/140 73/129/159 75/111/141
f 38/130/160 37/131/161 76/132/162
f 37/131/161 40/133/163 76/132/162
f 40/133/163 42/134/164 76/132/162
f 42/134/164 44/135/165 76/132/162
f 44/135/165 46/136/166 76/132/162
f 46/136/166 48/137/167 76/132/162
f 48/137/167 50/138/168 76/132/162
f 50/138/168 52/139/169 76/132/162
f 52/139/169 54/140/170 76/132/162
f 54/140/170 56/141/171 76/132/162
f 56/141/171 58/142/172 76/132/162
f 58/142/172 60/143/173 76/132/162
f 60/143/173 62/144/174 76/132/162
f 62/144/174 64/145/175 76/132/162
f 64/145/175 66/146/176 76/132/162
f 66/146/176 68/147/177 76/132/162
f 68/147/177 70/148/178 76/132/162
f 70/148/178 72/149/179 76/132/162
f 72/149/179 74/150/180 76/132/162
f 74/150/180 38/130/160 76/132/162
